<?xml version="1.0" encoding="UTF-8"?>
<svg id="_レイヤー_1" data-name="レイヤー 1" xmlns="http://www.w3.org/2000/svg" viewBox="0 0 82.85 30.06">
  <defs>
    <style>
      .cls-1 {
        fill: #fff;
        stroke-width: 0px;
      }
    </style>
  </defs>
  <path class="cls-1" d="m30.56.4c-.18-.54-.48-.54-.66,0l-6.08,17.9h.03s-.03.07-.03.1c0,.6,2.86,1.09,6.39,1.09s6.39-.49,6.39-1.09c0-.03-.02-.06-.03-.1h.03L30.56.4Zm-.35,16.67c-1.25,0-2.41-.06-3.4-.17l3.43-10.09,3.4,10.08c-.99.11-2.16.17-3.42.17ZM0,6.2h4.75v10.28h2.54V6.2h4.43v-2.54H0v2.54Zm18.58-2.54h-4.49v13.81h2.54v-3.65h1.62l1.88,4.15h2.55l-2.04-4.59c.9-.4,1.63-1.01,2.19-1.85.55-.84.83-1.77.83-2.79,0-1.4-.49-2.6-1.48-3.59-.99-.99-2.19-1.49-3.6-1.49Zm1.8,6.88c-.49.49-1.1.74-1.8.74h-1.95v-5.08h1.95c.71,0,1.31.25,1.8.74.49.49.74,1.09.74,1.8s-.25,1.31-.74,1.8Zm21.96-6.88h-4.38v14.31h2.54v-4.15h1.83c1.4,0,2.6-.5,3.59-1.49.99-.99,1.49-2.19,1.49-3.59s-.5-2.6-1.49-3.59c-1-.99-2.19-1.49-3.59-1.49Zm1.79,6.88c-.5.49-1.1.74-1.79.74h-1.83v-5.08h1.83c.7,0,1.29.25,1.79.74.5.49.75,1.09.75,1.8s-.25,1.31-.75,1.8Zm17.48,5.94h9.3v-2.54h-6.76v-2.61h4.22v-2.54h-4.22v-2.59h6.76v-2.54h-9.3v12.82Zm19.76-11.33c-.99-.99-2.19-1.49-3.6-1.49h-4.49v12.82h2.54v-2.66h1.63l1.37,2.66h2.55l-1.53-3.1c.9-.4,1.63-1.01,2.19-1.85.56-.84.83-1.77.83-2.79,0-1.4-.49-2.6-1.48-3.59Zm-1.8,5.39c-.49.49-1.09.74-1.8.74h-1.95v-5.08h1.95c.71,0,1.31.25,1.8.74.49.49.74,1.09.74,1.8s-.25,1.31-.74,1.8Zm-25.4-6.88h-4.38v13.48h2.54v-3.32h1.83c1.4,0,2.6-.5,3.59-1.49.99-.99,1.49-2.19,1.49-3.59s-.5-2.6-1.49-3.59c-.99-.99-2.19-1.49-3.59-1.49Zm1.79,6.88c-.5.49-1.1.74-1.79.74h-1.83v-5.08h1.83c.7,0,1.29.25,1.79.74.5.49.75,1.09.75,1.8s-.25,1.31-.75,1.8Z"/>
  <g>
    <path class="cls-1" d="m2.2,21.46c1.17,0,2.2.13,3.13.82,1.02.77,1.61,1.99,1.61,3.39s-.58,2.61-1.69,3.39c-.98.69-1.9.81-3.08.81H0v-8.41h2.2Zm-.55,7h.5c.42,0,1.32-.03,2.06-.55.67-.48,1.05-1.34,1.05-2.23s-.37-1.74-1.03-2.25c-.68-.5-1.51-.56-2.07-.56h-.5v5.59Z"/>
    <path class="cls-1" d="m13.12,22.87h-3.03v1.88h2.9v1.41h-2.9v2.3h3.03v1.41h-4.67v-8.41h4.67v1.41Z"/>
    <path class="cls-1" d="m15.56,21.46l2.25,5.65,2.25-5.65h1.79l-3.56,8.41h-.98l-3.53-8.41h1.79Z"/>
    <path class="cls-1" d="m27.49,22.87h-3.03v1.88h2.9v1.41h-2.9v2.3h3.03v1.41h-4.67v-8.41h4.67v1.41Z"/>
    <path class="cls-1" d="m30.72,21.46v7h2.6v1.41h-4.24v-8.41h1.64Z"/>
    <path class="cls-1" d="m43.03,25.67c0,2.56-1.84,4.39-4.49,4.39s-4.49-1.83-4.49-4.39,1.84-4.4,4.49-4.4,4.49,1.84,4.49,4.4Zm-1.69,0c0-1.7-1.16-2.91-2.8-2.91s-2.8,1.21-2.8,2.91,1.16,2.9,2.8,2.9,2.8-1.2,2.8-2.9Z"/>
    <path class="cls-1" d="m46.98,21.46c.95,0,1.6.1,2.22.64.68.61.86,1.43.86,2.03,0,.33-.05,1.24-.69,1.88-.47.47-1.16.74-2.13.74h-1.06v3.12h-1.64v-8.41h2.45Zm-.81,3.89h.67c.32,0,.72,0,1.07-.26.3-.24.45-.62.45-.98,0-.47-.23-.78-.47-.96-.34-.24-.77-.27-1.16-.27h-.57v2.47Z"/>
    <path class="cls-1" d="m52.41,21.46h1.19l2.23,5.35,2.33-5.35h1.19l1.41,8.41h-1.67l-.76-5.18-2.26,5.18h-.55l-2.16-5.18-.86,5.18h-1.67l1.56-8.41Z"/>
    <path class="cls-1" d="m66.91,22.87h-3.03v1.88h2.9v1.41h-2.9v2.3h3.03v1.41h-4.67v-8.41h4.67v1.41Z"/>
    <path class="cls-1" d="m68.49,29.87v-8.41h1.14l5.12,5.61v-5.61h1.64v8.41h-1.14l-5.12-5.63v5.63h-1.64Z"/>
    <path class="cls-1" d="m80.95,22.87v7h-1.64v-7h-1.89v-1.41h5.42v1.41h-1.89Z"/>
  </g>
</svg>